# xmcd
#
# Track frame offsets:
#	150
#	16007
#	32888
#	42228
#	56117
#	71508
#	86651
#	102356
#	114888
#	131088
#	144754
#	164167
#	176568
#	189046
#	205143
#	219158
#	233039
#	246626
#	258792
#	271704
#
# Disc length: 3799 seconds
#
# Revision: 0
# Processed by: cddbd v1.5.2PL0 Copyright (c) Steve Scherf et al.
# Submitted via: EasyCDDAExtractor 16.0.6.1
#
DISCID=110ed514
DTITLE=Συλλογικός δίσκος - Τα τραγούδια του τζούκ μποξ 6
DYEAR=2010
DGENRE=Ποικίλη
TTITLE0=Μπέλλου Σωτηρία - Πριν το χάραμα μονάχος [Γ. Παπαϊωάννου-Χ. Βασιλειάδη
TTITLE0=ς]
TTITLE1=Καζαντζίδης Στέλιος - Ο τραγουδιστής [Χ. Νικολόπουλος-Μάρω Μπιζάνη]
TTITLE2=Πουλόπουλος Γιάννης - Τα ματόκλαδά σου λάμπουν [Μ. Βαμβακάρης]
TTITLE3=Γλυκερία - Τα μάνταλα [Βασ. Τσιτσάνης]
TTITLE4=Κερμανίδης Πόλυς - Δεν θέλω τη συμπόνια κανενός [Ά. Πάνου-Σ. Ατταλίδης
TTITLE4=]
TTITLE5=Αγγελόπουλος Μανώλης - Ανέβα στο τραπέζι μου [Μ. Μπακάλης-Κ. Βίρβος]
TTITLE6=Σακελλαρίου Ρίτα - Τα λιμάνια [Βασ. Τσιτσάνης]
TTITLE7=Χρηστάκης - Να χαρείς τα μάτια σου καλέ [Σ. Ζαφειρίου-Γ. Γαβαλάς]
TTITLE8=Ντάλμα Ρένα - Μού σπάσανε τον μπαγλαμά [Απ. Καλδάρας]
TTITLE9=Ζαγοραίος Σπύρος - Αλάνια [Βασ. Τσιτσάνης]
TTITLE10=Λίντα Μαίρη - Το γκαρσόνι [Μ. Χιώτης-Γ. Οικονομίδης]
TTITLE11=Μενιδιάτης Μιχάλης - Αγωνίες [Μ. Χιώτης]
TTITLE12=Περπινιάδης Βαγγέλης - Κάποια μάννα αναστενάζει [Β. Τσιτσάνης-Μ. Μπακ
TTITLE12=άλης]
TTITLE13=Μοσχολιού Βίκυ - Το τελευταίο τραμ [Σουγιούλ/Γιαννίδης-Σακελλάριος/Γι
TTITLE13=αννακ)λος]
TTITLE14=Διονυσίου Άγγελος - Εγώ ο ξένος [Τ. Μουσαφίρης]
TTITLE15=Γαβαλάς Πάνος - Για σένα τα πάντα στερήθηκα [Β. Βασιλειάδης-Γ. Γαβαλά
TTITLE15=ς]
TTITLE16=Γονίδης Σταμάτης - Είμαι εγώ που σε παίρνω τηλέφωνο [Σ. Γονίδης]
TTITLE17=Παγιουμτζής Στράτος - Όλα για σένα κούκλα μου [Σ. Παγιουμτζής]
TTITLE18=Μπέλλου Σωτηρία - Λίγα ψίχουλα αγάπης σού γυρεύω [Σ. Τζουανάκος-Κ. Βί
TTITLE18=ρβος]
TTITLE19=Καναρίδης Μανώλης - Όση γλύκα έχουνε τα χείλη σου [Απ. Καλδάρας]
EXTD=
EXTT0=
EXTT1=
EXTT2=
EXTT3=
EXTT4=
EXTT5=
EXTT6=
EXTT7=
EXTT8=
EXTT9=
EXTT10=
EXTT11=
EXTT12=
EXTT13=
EXTT14=
EXTT15=
EXTT16=
EXTT17=
EXTT18=
EXTT19=
PLAYORDER=
